<svg viewBox="0 0 138 111" aria-hidden="true" fill="currentColor">
    <defs>
        <rect id="a" x="43" y="70" width="12" height="12" rx="2"/>
    </defs>
    <g fill-rule="evenodd">
        <rect transform="rotate(-53 18 54)" x="12" y="48" width="12" height="12" rx="2"/>
        <rect transform="rotate(-53 13 27)" x="4" y="18" width="18" height="18" rx="2"/>
        <rect transform="rotate(-53 120 8)" x="115" y="3" width="10" height="10" rx="2"/>
        <rect transform="rotate(-53 93.5 12.5)" x="87" y="6" width="13" height="13" rx="2"/>
        <rect transform="rotate(-53 54.072 102.112)" x="48.972" y="97.012" width="10.2" height="10.2" rx="2"/>
        <rect transform="rotate(-53 107.1 93.1)" x="104" y="90" width="6.2" height="6.2" rx="1"/>
        <rect transform="rotate(-53 103.1 66.1)" x="99" y="62" width="8.2" height="8.2" rx="1"/>
        <path d="M67.606 100.328c0 .31.15.599.404.776l12.847 8.997c.49.342 1.071.525 1.668.525.576 0 1.118-.274 1.46-.738l9.246-12.563c.26-.353.4-.781.4-1.22 0-.426-.2-.828-.54-1.085L79.779 84.958a.962.962 0 0 1-.382-.767c0-.312.096-.616.275-.87l8.285-11.808a3.292 3.292 0 0 0 .598-1.891c0-.655-.308-1.272-.83-1.666l-11.147-8.404a2.967 2.967 0 0 1-1.18-2.369c0-.96.307-1.896.878-2.668l7.257-9.826a2.974 2.974 0 0 1 2.392-1.207c.973 0 1.918.324 2.685.921l8.345 6.49c.784.61 1.748.94 2.74.94.96 0 1.858-.47 2.405-1.257l7.752-11.172a2.056 2.056 0 0 1 1.69-.884c.696 0 1.372.236 1.918.669l11.149 8.84a3.155 3.155 0 0 0 1.96.683c.689 0 1.335-.336 1.73-.9l8.767-12.516a3.252 3.252 0 0 0 .588-1.865 1.98 1.98 0 0 0-.837-1.618l-12.38-8.741a3.17 3.17 0 0 0-1.83-.581 2.02 2.02 0 0 0-1.612.804l-8.275 10.976a3.257 3.257 0 0 1-2.6 1.297h-.116a5 5 0 0 1-2.765-.834l-10.062-6.677a2.025 2.025 0 0 0-1.12-.338c-.384 0-.746.181-.977.488L86.254 39.94c-.409.544-1.05.864-1.731.864a3.477 3.477 0 0 1-1.972-.613l-11.743-8.085a5 5 0 0 1-.899-.794l-.006-.007a1.613 1.613 0 0 1-.408-1.073v-.425c0-.677.208-1.337.598-1.89l6.759-9.616a2.885 2.885 0 0 0 .525-1.659c0-.572-.28-1.107-.75-1.432L66.348 8.09a3.07 3.07 0 0 0-1.748-.547c-.6 0-1.162.296-1.502.79l-6.94 10.09a2.246 2.246 0 0 0-.395 1.273c0 .44.205.855.553 1.123l9.995 7.689a3.32 3.32 0 0 1 1.295 2.63v.033a5 5 0 0 1-.931 2.906l-8.356 11.7a1.924 1.924 0 0 1-1.566.805c-.644 0-1.272-.2-1.797-.572l-10.228-7.254a3.227 3.227 0 0 1-1.36-2.632v-.06a5 5 0 0 1 .937-2.914l7.806-10.882a2.76 2.76 0 0 0 .518-1.608c0-.555-.274-1.075-.732-1.389l-13.28-9.096c-.2-.137-.437-.21-.68-.21a.737.737 0 0 0-.593.299l-9.281 12.57a3.086 3.086 0 0 0-.603 1.833c0 .637.308 1.235.828 1.604l11.89 8.442a2.859 2.859 0 0 1 1.203 2.331 5 5 0 0 1-.8 2.716L34.042 49.87c-.245.379-.375.82-.375 1.272 0 .434.206.843.556 1.101l10.695 7.893c.479.354 1.059.544 1.654.544.574 0 1.111-.282 1.436-.755l6.464-9.405a4.332 4.332 0 0 1 3.57-1.878h.567a5 5 0 0 1 3.065 1.05l8.93 6.928a3.173 3.173 0 0 1 1.227 2.507c0 1.008-.33 1.989-.938 2.792l-7.564 9.991c-.33.436-.508.967-.508 1.514 0 .53.25 1.028.674 1.346l12.119 9.075a2.747 2.747 0 0 1 1.1 2.199c0 .893-.284 1.763-.813 2.483l-8.004 10.91c-.19.258-.292.57-.292.89Z"/>
        <mask>
            <use href="#a"/>
        </mask>
        <use transform="rotate(-53 49 76)" href="#a"/>
    </g>
</svg>
